<svg xmlns="http://www.w3.org/2000/svg" width="128" height="36" viewBox="0 0 169 44">
                        <style>.a {fill: #000;}</style>
                        <g style="fill:none;stroke-width:1;stroke:none">
                            <g transform="translate(1 0)">
                                <path d="M154.6 7C154.6 3.4 157.5 0.5 161.1 0.5 164.7 0.5 167.7 3.4 167.7 7 167.7 10.6 164.7 13.6 161.1 13.6 157.5 13.6 154.6 10.6 154.6 7" class="a"></path>
                                <path d="M155.8 7C155.8 4.1 158.2 1.6 161.1 1.6 164.1 1.6 166.5 4.1 166.5 7 166.5 10 164.1 12.4 161.1 12.4 158.2 12.4 155.8 10 155.8 7" fill="#FFF"></path>
                                <path d="M160.4 8.6C160.4 8.1 160 7.7 159.5 7.7L157.2 7.7 157.2 6.3 159.5 6.3C160 6.3 160.4 5.9 160.4 5.4L160.4 3.1 161.8 3.1 161.8 5.4C161.8 5.9 162.2 6.3 162.7 6.3L165.1 6.3 165.1 7.7 162.7 7.7C162.2 7.7 161.8 8.1 161.8 8.6L161.8 11 160.4 11 160.4 8.6 160.4 8.6Z" class="a"></path>
                                <polygon points="123.5 6.3 123.5 44.1 148.7 44.1 148.7 38.1 129.3 38.1 129.3 28.2 145.9 28.2 145.9 22.3 129.3 22.3 129.3 12.4 148.7 12.4 148.7 6.3 123.5 6.3" class="a"></polygon>
                                <path d="M98.8 38L91.8 38 91.8 12.4 98.8 12.4C105.7 12.4 111.3 18.2 111.3 25.2 111.3 32.3 105.7 38 98.8 38M98.6 6.3L86 6.3 86 44.1 98.6 44.1C109 44.1 117.2 35.7 117.2 25.2 117.2 14.8 109 6.3 98.6 6.3" class="a"></path>
                                <path d="M60.2 6.3L44.4 44.1 50.8 44.1 53.4 37.6 70.8 37.6 73.4 44.1 79.7 44.1 64 6.3 60.2 6.3 60.2 6.3ZM62.1 17L68 31.6 56.1 31.6 62.1 17 62.1 17Z" class="a"></path>
                                <polygon points="33.5 6.3 19.1 22.6 4.8 6.3 0.1 6.3 0.1 44.1 6 44.1 6 16.9 19.1 31.7 32.3 16.9 32.3 44.1 38.1 44.1 38.1 6.3 33.5 6.3" class="a"></polygon>
                            </g>
                        </g>
                    </svg>